<?xml version="1.0" encoding="UTF-8"?>
<svg id="Layer_5" data-name="Layer 5" xmlns="http://www.w3.org/2000/svg" width="5in" height="5in" xmlns:xlink="http://www.w3.org/1999/xlink" viewBox="0 0 360 360">
  <defs>
    <style>
      .cls-1 {
        fill: url(#radial-gradient);
        stroke-width: 0px;
      }
    </style>
    <radialGradient id="radial-gradient" cx="177.51" cy="185.18" fx="177.51" fy="185.18" r="162.38" gradientUnits="userSpaceOnUse">
<stop offset="0" stop-color="#ffffff"/>
      <stop offset="0.1" stop-color="#d9d9d9"/>
      <stop offset="0.3" stop-color="#a6a6a6"/>
      <stop offset="0.94" stop-color="#4d4d4d"/>
      <stop offset="1" stop-color="#333333"/>
    </radialGradient>
  </defs>
  <path class="cls-1" d="M294.69,248.72h15.27c-23.68,49.24-74.04,83.24-132.34,83.24s-108.66-33.99-132.34-83.24h15.27c22.56,41.49,66.53,69.65,117.08,69.65s94.52-28.16,117.08-69.65ZM177.61,52c71.66,0,130.09,56.6,133.05,127.53h13.6c-2.97-78.44-67.49-141.12-146.65-141.12S33.93,101.09,30.96,179.53h13.6c2.96-70.93,61.39-127.53,133.05-127.53ZM177.61,336.82c-61.06,0-113.68-36.09-137.71-88.1h-4.59c24.32,54.38,78.88,92.28,142.31,92.28s117.99-37.9,142.31-92.28h-4.59c-24.04,52.01-76.66,88.1-137.71,88.1ZM15.48,208.74c-3.55,0-6.44,2.88-6.44,6.44s2.88,6.44,6.44,6.44,6.44-2.88,6.44-6.44-2.88-6.44-6.44-6.44ZM339.75,208.74c-3.55,0-6.44,2.88-6.44,6.44s2.88,6.44,6.44,6.44,6.44-2.88,6.44-6.44-2.88-6.44-6.44-6.44ZM79.77,184.78c0-1.21-.98-2.18-2.18-2.18l-66.58-.05h0c-1.21,0-2.18.98-2.18,2.18,0,1.21.98,2.18,2.18,2.18l66.58.05h0c1.21,0,2.18-.98,2.18-2.18ZM79.77,184.78c0-1.21-.98-2.18-2.18-2.18l-66.58-.05h0c-1.21,0-2.18.98-2.18,2.18,0,1.21.98,2.18,2.18,2.18l66.58.05h0c1.21,0,2.18-.98,2.18-2.18ZM277.38,186.96l66.58-.05c1.21,0,2.18-.98,2.18-2.18,0-1.21-.98-2.18-2.18-2.18h0l-66.58.05c-1.21,0-2.18.98-2.18,2.18,0,1.21.98,2.18,2.18,2.18h0ZM339.49,175.12h-6.4c-.07-1.04-.14-2.08-.23-3.11h4.74c1.21,0,2.18-.98,2.18-2.18s-.98-2.18-2.18-2.18h-5.16c-8.71-77.8-74.7-138.29-154.83-138.29S31.5,89.85,22.79,167.65h-5.42c-1.21,0-2.18.98-2.18,2.18s.98,2.18,2.18,2.18h5c-.09,1.03-.16,2.07-.23,3.11h-6.66c-1.21,0-2.18.98-2.18,2.18s.98,2.18,2.18,2.18h6.44s0,.02,0,.04h4.18C29.07,98.4,95.76,33.54,177.61,33.54s148.55,64.86,151.52,145.98h4.18s0-.02,0-.04h6.18c1.21,0,2.18-.98,2.18-2.18s-.98-2.18-2.18-2.18ZM277.38,186.96l66.58-.05c1.21,0,2.18-.98,2.18-2.18,0-1.21-.98-2.18-2.18-2.18h0l-66.58.05c-1.21,0-2.18.98-2.18,2.18,0,1.21.98,2.18,2.18,2.18h0ZM79.77,242.93c0-1.21-.98-2.18-2.18-2.18l-66.58-.05h0c-1.21,0-2.18.98-2.18,2.18,0,1.21.98,2.18,2.18,2.18l66.58.05h0c1.21,0,2.18-.98,2.18-2.18ZM277.38,245.11l66.58-.05c1.21,0,2.18-.98,2.18-2.18,0-1.21-.98-2.18-2.18-2.18h0l-66.58.05c-1.21,0-2.18.98-2.18,2.18,0,1.21.98,2.18,2.18,2.18h0ZM86.03,103.33c8.18,3.98,12.88,6.67,20.6,11.73.67.44,1.54.38,2.15-.14.94-.81,1.69-1.42,2.65-2.18.63-.5.85-1.38.53-2.12-1.53-3.52-2.4-5.69-3.91-9.66-.26-.66-.82-1.94-1.66-3.84.03-.02.05-.04.08-.06.89.83,1.86,1.67,2.89,2.52,3.37,2.8,5.19,4.37,8.11,7.05.6.55,1.51.63,2.19.18,1.01-.67,1.83-1.18,2.86-1.8.68-.41,1.01-1.23.8-2-2.41-8.89-3.53-14.18-4.87-23.14-.18-1.21-1.51-1.9-2.6-1.33-1.32.68-2.42,1.29-3.84,2.11-.7.4-1.04,1.22-.84,2,1.41,5.55,2.31,8.67,4.19,14.53-4.41-4.25-6.81-6.43-11.16-10.13-.61-.52-1.5-.57-2.17-.11-1.41.97-2.43,1.71-3.81,2.74-.64.49-.88,1.35-.58,2.1,2.16,5.35,3.49,8.35,6.15,13.95-5.08-3.64-7.82-5.47-12.81-8.54-.67-.41-1.54-.34-2.13.19-1.25,1.12-2.2,1.99-3.3,3.06-.89.86-.64,2.35.47,2.89ZM123.12,76.91c3.68,8.05,5.83,12.76,9.52,20.82.39.86,1.41,1.24,2.27.86,1.04-.46,1.92-.83,2.98-1.25.88-.35,1.31-1.34.97-2.22-3.17-8.27-5.03-13.1-8.2-21.37-.34-.89-1.35-1.34-2.24-.99-1.61.63-2.84,1.15-4.42,1.86-.87.39-1.26,1.42-.87,2.29ZM138.13,71.06c2.69,8.52,4.25,13.46,6.94,21.98.27.86,1.19,1.34,2.05,1.07,3.04-.93,5.14-1.46,8.24-2.1.88-.18,1.46-1.05,1.3-1.86l-.56-2.82c-.18-.9-1.06-1.48-1.95-1.29-.75.16-1.41.3-2.15.48-.87.21-1.76-.33-1.98-1.2-1.57-6.32-2.52-10.13-4.1-16.45-.22-.88-1.12-1.42-2.01-1.2-1.71.44-3.01.8-4.71,1.32-.87.27-1.36,1.2-1.09,2.07ZM162.66,90.74c1.41.25,2.78.31,4.14.17,2.64-.27,4.77-1.14,6.47-2.7,1.7-1.56,2.59-3.45,2.56-5.72-.03-1.95-.77-3.65-2.31-5.08-1.53-1.43-3.09-2.49-4.63-3.2-2.58-1.2-3.99-2.29-4.11-3.39-.06-.63.16-1.15.68-1.56.52-.41,1.27-.66,2.23-.74.9-.07,2,.05,3.26.36s2.4-.69,2.36-1.96l-.06-1.68c-.03-.9-.68-1.66-1.57-1.84-1.78-.36-3.58-.46-5.37-.31-3.11.26-5.56,1.3-7.28,2.99-1.71,1.69-2.34,3.68-1.96,5.93.27,1.65,1.11,3.04,2.46,4.22,1.35,1.17,3.38,2.37,6,3.68,1.09.55,1.85,1.04,2.3,1.47.45.42.69.9.73,1.42.05.68-.15,1.25-.62,1.7-.46.46-1.12.72-1.97.81-.84.09-1.81.02-2.92-.2-1.32-.26-2.51.83-2.31,2.16.09.6.18,1.19.29,1.85.13.83.78,1.47,1.61,1.62ZM198.22,88.61c2.3-2.04,4.01-5.17,4.95-9.49.94-4.32.63-7.88-1.15-10.64-1.77-2.76-4.92-4.52-9.28-5.02-4.09-.46-7.4.54-9.73,2.82-2.33,2.28-3.44,5.59-3.51,9.83-.07,4.6.87,8.13,2.65,10.64,1.77,2.51,4.29,3.88,7.73,4.27,3.32.39,6.04-.38,8.34-2.42ZM195.44,77.63c-.47,3.15-1.15,5.2-1.99,6.19-.84.98-1.89,1.39-3.16,1.25-1.19-.13-2.03-.76-2.57-1.91-.54-1.14-.69-3.34-.42-6.59.41-5.04,2.02-7.48,4.83-7.16,2.98.34,4.08,3.13,3.31,8.21ZM211.48,69.28c-2.46,9.22-3.82,14.3-6.4,23.97.12.03.23.06.35.09,2.34.82,3.74,1.43,5.21,1.96.66.24,1.38-.14,1.57-.82,1.36-4.98,3.19-11.55,3.74-13.58,1.6,6.59,2.21,10.02,2.9,16.32.05.46.35.87.78,1.05,1.65.7,2.76,1.21,4.26,1.94.69.34,1.53.06,1.87-.63,4.11-8.23,6.43-12.89,10.55-21.14.32-.65.06-1.44-.59-1.76-1.84-.9-3.17-1.52-5.01-2.31-.74-.32-1.61.03-1.92.78-1.56,3.69-2.51,5.94-4.24,10.02-.34,1.09-.51,1.63-.86,2.72-1.01-6.77-1.76-10.31-3.62-16.86-.15-.52-.55-.94-1.07-1.11-2.15-.71-3.6-1.15-5.65-1.71-.81-.22-1.64.26-1.86,1.07ZM242.26,84.81c.95.55,1.42.83,2.36,1.4-.93,1.08-2.29,1.77-4.05,2.13.38,1.08.56,1.62.92,2.71,3.12-.18,5.7-1.66,7.65-4.66.56-.87.85-1.3,1.41-2.16-2.31-1.51-3.48-2.23-5.85-3.61-.98,1.68-1.46,2.52-2.44,4.2ZM242.11,111.4c.88,1.27,1.88,2.38,3.03,3.33,2.16,1.8,4.37,2.81,6.77,3.03,2.4.22,4.43-.4,6.03-2.01,1.38-1.38,2.05-3.14,1.92-5.31-.12-2.17-.52-4.1-1.16-5.76-1.07-2.8-1.33-4.61-.63-5.45.4-.49.95-.68,1.63-.57.68.11,1.42.49,2.19,1.17.78.68,1.57,1.68,2.33,2.99.61,1.04,2.05,1.2,2.88.34.44-.46.87-.9,1.35-1.4.6-.62.67-1.58.2-2.3-1.1-1.67-2.4-3.16-3.88-4.44-2.51-2.17-5.07-3.28-7.55-3.37-2.48-.09-4.37.84-5.7,2.68-.98,1.35-1.37,2.94-1.22,4.76.15,1.82.8,4.15,1.8,7.04.42,1.2.63,2.12.66,2.75.03.63-.13,1.15-.48,1.55-.45.52-1.01.75-1.68.72-.67-.03-1.35-.34-2.05-.92-.74-.61-1.46-1.47-2.18-2.56s-2.24-1.13-3-.11c-.41.55-.8,1.08-1.26,1.69s-.48,1.5-.03,2.15ZM30.96,232.53c0,.78.7,1.4,1.56,1.4h8.2c3.59,0,6.87-.66,9.84-1.98,2.97-1.32,5.28-3.46,6.94-6.42,1.65-2.96,2.48-6.85,2.48-11.66,0-6.35-1.68-11.18-5.03-14.49s-8.25-4.96-14.69-4.96h-7.74c-.86,0-1.56.63-1.56,1.4v36.7ZM42.65,202.97c.52.06.99.15,1.41.24.82.2,1.66.73,2.53,1.58.87.86,1.52,2.08,1.96,3.67.44,1.59.66,3.53.66,5.82,0,3.87-.62,6.64-1.87,8.33-.98,1.32-2.49,2.19-4.55,2.63-.96.2-1.86-.5-1.86-1.38v-19.49c0-.84.81-1.51,1.73-1.4ZM70.66,195.83v36.7c0,.78.7,1.4,1.56,1.4h17.09c.86,0,1.56-.63,1.56-1.4v-5.63c0-.78-.7-1.4-1.56-1.4h-7.13c-.86,0-1.56-.63-1.56-1.4v-4.38c0-.78.7-1.4,1.56-1.4h5.72c.86,0,1.56-.63,1.56-1.4v-5.39c0-.78-.7-1.4-1.56-1.4h-5.72c-.86,0-1.56-.63-1.56-1.4v-4.47c0-.78.7-1.4,1.56-1.4h7.07c.86,0,1.56-.63,1.56-1.4v-5.6c0-.78-.7-1.4-1.56-1.4h-17.03c-.86,0-1.56.63-1.56,1.4ZM99.41,195.83v6.22c0,.78.7,1.4,1.56,1.4h3.68c.86,0,1.56.63,1.56,1.4v27.67c0,.78.7,1.4,1.56,1.4h6.97c.86,0,1.56-.63,1.56-1.4v-27.67c0-.78.7-1.4,1.56-1.4h3.75c.86,0,1.56-.63,1.56-1.4v-6.22c0-.78-.7-1.4-1.56-1.4h-20.64c-.86,0-1.56.63-1.56,1.4ZM162.28,232.17l-10.81-36.7c-.18-.62-.8-1.04-1.51-1.04h-8.77c-.71,0-1.33.43-1.51,1.04l-10.81,36.7c-.26.89.48,1.76,1.51,1.76h6.9c.72,0,1.35-.45,1.52-1.08l1.17-4.44c.17-.63.79-1.08,1.52-1.08h8.04c.73,0,1.36.45,1.52,1.09l1.12,4.42c.16.64.79,1.09,1.52,1.09h7.08c1.02,0,1.77-.87,1.51-1.76ZM143.99,220.23c-.99,0-1.72-.83-1.52-1.7,1.23-5.13,2.19-10.16,2.9-15.08h.13c.67,4.79,1.65,9.81,2.93,15.07.21.88-.52,1.71-1.52,1.71h-2.93ZM172.16,195.83v36.7c0,.78.7,1.4,1.56,1.4h6.84c.86,0,1.56-.63,1.56-1.4v-36.7c0-.78-.7-1.4-1.56-1.4h-6.84c-.86,0-1.56.63-1.56,1.4ZM195.82,195.83v36.7c0,.78.7,1.4,1.56,1.4h14.73c.86,0,1.56-.63,1.56-1.4v-6.34c0-.78-.7-1.4-1.56-1.4h-4.77c-.86,0-1.56-.63-1.56-1.4v-27.55c0-.78-.7-1.4-1.56-1.4h-6.84c-.86,0-1.56.63-1.56,1.4ZM224.73,195.83v36.7c0,.78.7,1.4,1.56,1.4h6.84c.86,0,1.56-.63,1.56-1.4v-36.7c0-.78-.7-1.4-1.56-1.4h-6.84c-.86,0-1.56.63-1.56,1.4ZM248.39,195.83v36.7c0,.78.7,1.4,1.56,1.4h6.84c.86,0,1.56-.63,1.56-1.4v-16.12l-.26-4.91,11.96,21.65c.26.48.8.78,1.4.78h7.7c.86,0,1.56-.63,1.56-1.4v-36.7c0-.78-.7-1.4-1.56-1.4h-6.84c-.86,0-1.56.63-1.56,1.4v17.07s0,.07,0,.11l.36,4.21-12.22-22.01c-.26-.48-.8-.78-1.39-.78h-7.53c-.86,0-1.56.63-1.56,1.4ZM310.81,211.8c-.86,0-1.56.63-1.56,1.4v4.86c0,.78.7,1.4,1.56,1.4h1.4c.93,0,1.67.73,1.55,1.56-.46,3.24-2.14,4.86-5.04,4.86-2.08,0-3.6-.93-4.55-2.8-.95-1.86-1.43-4.78-1.43-8.75,0-4.26.42-7.34,1.27-9.25.84-1.9,2.27-2.86,4.29-2.86,1.18,0,2.11.29,2.79.87.48.41.99,1,1.53,1.75.41.58,1.21.82,1.92.56l6.75-2.5c.85-.31,1.21-1.21.8-1.95-2.84-5.09-7.13-7.63-12.9-7.63s-9.83,1.75-12.73,5.25c-2.9,3.5-4.35,8.64-4.35,15.4s1.46,11.87,4.37,15.49c2.91,3.62,7.04,5.43,12.39,5.43,4.78,0,8.54-1.47,11.29-4.4,2.75-2.93,4.13-6.96,4.13-12.09v-5.22c0-.78-.7-1.4-1.56-1.4h-11.9ZM252.64,129.45l-28.05.07c-.71.03-1.7.12-2.85.43-1.2.32-2.04.74-2.99,1.21-.91.45-2.1,1.12-3.42,2.06l1.31-2.26c.29-.49.27-1.11-.04-1.59l-6.11-9.44c-.27-.42-.73-.69-1.23-.72-5.19-.31-10.75-.46-16.65-.38-6.26.09-12.13.43-17.58.93l-4.98-4.84c7.78-2.88,14.95-2.99,23.57-2.97,9.54.03,18.67-.13,27.9,1.87.71.15,1.39.41,2.04.74l29.07,14.88ZM231.92,128.31h12.21l-22.74-11.73c-.57-.29-1.17-.49-1.81-.57-6.96-.95-14.94-1.6-23.75-1.58-7.71.02-14.76.56-21,1.35l1.14,1.35c6.28-.79,13.45-1.32,21.36-1.28,7.94.04,15.15.66,21.48,1.53,1.13.16,2.17.66,3,1.44l10.12,9.48ZM292.38,151.43c-.45,1.48-1.98,2.25-3.22,2.5-5.88,12.34-14.54,12.79-27.22,12.53-1.1-28.97-40.01-22.64-36.88,4.47h-102.91c3.14-27.11-35.77-33.44-36.88-4.47-3.72.14-5.56-.77-8.9-1.22-1.6-.32-3.15.79-4.37-.15-2.67-2.05-3.24-5.25-4.38-7.96-1.4-.01-2.99-.23-3.94-1.37-1.39-1.42-.48-3.95,1.46-4.07,2.77-.18,4.55-.27,7.18-.61-8.31-4.2-8.18-1.78-8.76-11.67-3.01-1.8,1.61-2.18,2.9-2.31,3.83-.4,7.36-2.55,11.24-3.01l67.86.38,23.71-16.84,1.28,1.71-19.69,15.16,62.56.35c1.33,0,2.65-.23,3.88-.76,1.75-.75,3.33-1.84,5.18-2.51.81-.3,1.67-.43,2.53-.45,7.57-.15,15.5-.05,23.77.38,3.29.17,6.52.39,9.68.64l-21.07,1.07,49.9.5c.93,1.87,1.89,4.11,2.71,6.69.7,2.22,1.18,4.29,1.49,6.12,1.34,1.17,1.34,3.36.88,4.9ZM213.35,139.09c.07.02.13.02.2.02.37,0,.7-.25.79-.62l.37-1.53c.11-.44-.16-.88-.6-.99-.43-.1-.88.16-.99.6l-.37,1.53c-.11.44.16.88.6.99ZM201.35,136.78c0,.45.37.82.82.82h7.53l-.74,2.59c-.12.43.13.89.56,1.01.07.02.15.03.22.03.36,0,.69-.23.79-.59l1.03-3.63c.07-.25.02-.51-.13-.72-.15-.2-.4-.33-.65-.33h-8.61c-.45,0-.82.37-.82.82ZM154.33,144.25l54.9,1.6.52-1.83c-16.34.07-55.42.23-55.42.23ZM83.02,154.43c0-.6-.49-1.09-1.09-1.09h-15.52c-.6,0-1.09.49-1.09,1.09s.49,1.09,1.09,1.09h15.52c.6,0,1.09-.49,1.09-1.09ZM120.23,152.94c-3.04-6.27-9.23-10.35-16.02-10.54-9.2-.25-14.65,6.79-15.16,7.47,1.34-1.11,6.87-5.45,14.95-5.13,9.66.38,15.35,7.11,16.23,8.19ZM163.73,138.34c-47.01-.38-79.37-.75-84.18-.59-1.9.28-3.76.82-5.04,2.32-1.78,2.2-1.31,5.2.81,6.88-1.37-3.8,1.31-7.64,5.46-7.47.95.17,61.2-.78,82.96-1.14ZM205.25,160l-76.97,1.91,76.29.5.68-2.41ZM223.31,144.98c-.48-.8-1.29-.98-1.42-1.01,0,0-7.84.03-10.68.04l-.53,1.88,5.37.16c.23-.01,1.13-.03,1.92.62.11.09.2.18.29.27.42.46.5,1.14.25,1.72l-4.17,9.83c-.13.21-.35.51-.71.78-.52.39-1.04.51-1.32.55l-5.59.14-.69,2.46,8.53.06c.43-.03,1.15-.15,1.92-.57.83-.45,1.34-1.06,1.64-1.48.11-.16.2-.32.27-.5l5.15-13.13c.04-.13.29-.98-.21-1.82ZM259.72,152.91c-3.04-6.27-9.23-10.35-16.02-10.54-9.2-.25-14.65,6.79-15.16,7.47,1.34-1.11,6.87-5.45,14.95-5.13,9.66.38,15.35,7.11,16.23,8.19ZM169.85,132.51l3.51-11.18-15.47,11.18h11.96ZM119.52,163.72c0,8.73-7.08,15.8-15.8,15.8s-15.8-7.08-15.8-15.8,7.08-15.8,15.8-15.8,15.8,7.08,15.8,15.8ZM113.78,163.72c0-5.56-4.51-10.06-10.06-10.06s-10.06,4.51-10.06,10.06,4.51,10.06,10.06,10.06,10.06-4.51,10.06-10.06ZM103.71,156.51c-3.98,0-7.21,3.23-7.21,7.21s3.23,7.21,7.21,7.21,7.21-3.23,7.21-7.21-3.23-7.21-7.21-7.21ZM259.94,163.72c0,8.73-7.08,15.8-15.8,15.8s-15.8-7.08-15.8-15.8,7.08-15.8,15.8-15.8,15.8,7.08,15.8,15.8ZM254.2,163.72c0-5.56-4.51-10.06-10.06-10.06s-10.06,4.51-10.06,10.06,4.51,10.06,10.06,10.06,10.06-4.51,10.06-10.06ZM244.13,156.51c-3.98,0-7.21,3.23-7.21,7.21s3.23,7.21,7.21,7.21,7.21-3.23,7.21-7.21-3.23-7.21-7.21-7.21ZM201.2,282.04c-.87,1.11-1.98,2.28-3.13,3.27-2.79-1.01-6.06-2-9.75-2.78-3.96-.83-7.58-1.24-10.7-1.42-3.13.18-6.74.59-10.7,1.42-3.7.78-6.96,1.77-9.75,2.78-1.15-1-2.26-2.16-3.13-3.27,1.96-1.65,4.61-3.19,8.08-4.34h-.04c.44-1.76,1.03-3.73,1.85-5.84.79-2.04,1.65-3.85,2.49-5.41,1.65-.43,3.56-.82,5.7-1.07,2.02-.24,3.88-.31,5.51-.28,1.63-.02,3.48.05,5.51.28,2.14.25,4.05.64,5.7,1.07.84,1.56,1.7,3.37,2.49,5.41.82,2.11,1.41,4.08,1.85,5.84h-.04c3.47,1.15,6.12,2.69,8.08,4.34ZM178.81,274.92c1.87.1,3.57.34,5.69.57,2.35.26,4.44.9,6.27,1.39-.47-1.11-1.04-2.3-1.71-3.54-.52-.96-1.05-1.84-1.57-2.65-1.26-.09-2.57-.16-3.93-.2-1.63-.04-3.19-.04-4.68,0-.04.84.03,1.59-.02,2.44-.03.68-.02,1.31-.05,1.99ZM164.46,276.88c1.83-.49,3.93-1.13,6.27-1.39,2.11-.23,3.81-.47,5.69-.57-.04-.68-.02-1.31-.05-1.99-.04-.84.02-1.6-.02-2.44-1.49-.04-3.05-.04-4.68,0-1.36.04-2.67.1-3.93.2-.52.81-1.05,1.7-1.57,2.65-.67,1.24-1.23,2.43-1.71,3.54ZM198.91,281.78c-7.36-4.13-15.63-5.26-21.27-5.48,0,0-.01,0-.02,0,0,0-.01,0-.02,0-5.64.22-13.91,1.35-21.27,5.48-.26.15-.36.48-.21.74.1.18.29.28.48.28.09,0,.18-.02.27-.07,7.16-4.02,15.24-5.12,20.76-5.34,5.52.21,13.6,1.32,20.76,5.34.08.05.18.07.27.07.19,0,.38-.1.48-.28.15-.26.05-.6-.21-.74ZM177.61,283.18c-3.06.17-6.61.58-10.49,1.42-3.17.69-6.01,1.54-8.47,2.42,3.23,4.17,6.17,9,8.42,13.79l.56,1.27c1.5-.53,3.69-1.46,5.79-2.96,1.87-1.33,3.23-2.73,4.19-3.87.95,1.14,2.32,2.54,4.19,3.87,2.1,1.5,4.29,2.43,5.79,2.96l.56-1.27c2.25-4.79,5.19-9.62,8.42-13.79-2.47-.88-5.3-1.73-8.47-2.42-3.88-.84-7.43-1.25-10.49-1.42ZM122.92,248.72h-56.37c2.08,3.63,4.34,7.15,6.75,10.55h69.4c-5-5.14-11.11-8.9-19.78-10.55ZM288.68,248.72h-56.37c-8.68,1.65-14.78,5.41-19.78,10.55h69.4c2.42-3.4,4.67-6.92,6.75-10.55ZM210.21,261.83c-1.7,2.02-3.29,4.22-4.83,6.55,5.7-.13,11.38-.18,16.98-.21,14.76.08,30.06.33,44.74,1.64-14.67,1.31-30,1.55-44.74,1.64-6.19-.03-12.49-.1-18.79-.26-.84,1.35-1.68,2.74-2.53,4.15,5.86-.16,11.71-.23,17.46-.27,13.49.08,27.48.33,40.89,1.64-13.4,1.31-27.41,1.55-40.89,1.64-5.58-.03-11.24-.1-16.92-.25.44.34.89.72,1.35,1.14,1.1,1.01,1.98,2,2.67,2.88-.14.14-.27.28-.41.42,1.93-.03,3.85-.05,5.75-.06,11.01.08,22.41.33,33.34,1.64-10.92,1.31-22.34,1.56-33.34,1.64-2.89-.02-5.81-.05-8.73-.11-4.95,5.3-9.61,11.1-13.66,17.06,8.22,3.36,17.77,2.96,25.81-2.42,7.09,1.55,15.13-1.16,19.86-6.55-.64,1.45-2.52,5.16-6.76,7.69-5.75,3.43-11.58,2.15-12.81,1.85-2.43,1.49-8.64,4.83-17.09,4.48-11.04-.45-18.15-6.88-19.96-8.61-1.8,1.73-8.92,8.17-19.96,8.61-8.44.34-14.65-3-17.09-4.48-1.23.3-7.06,1.58-12.81-1.85-4.24-2.53-6.12-6.24-6.76-7.69,4.73,5.39,12.77,8.1,19.86,6.55,8.04,5.38,17.59,5.79,25.81,2.42-4.05-5.96-8.71-11.76-13.66-17.06-2.93.06-5.85.09-8.73.11-11.01-.08-22.41-.33-33.34-1.64,10.92-1.31,22.34-1.56,33.34-1.64,1.91.01,3.83.03,5.75.06-.14-.14-.27-.28-.41-.42.69-.88,1.57-1.88,2.67-2.88.46-.42.91-.8,1.35-1.14-2.23.06-4.46.1-6.69.16l-10.22.09-10.22-.09c-3.41-.09-6.82-.12-10.22-.27-6.82-.24-13.63-.6-20.45-1.27,6.82-.68,13.63-1.03,20.45-1.27,3.41-.15,6.82-.18,10.22-.27l10.22-.09,10.22.09c2.41.06,4.83.11,7.24.18-.84-1.42-1.68-2.81-2.53-4.16-6.3.16-12.6.23-18.79.26-14.76-.08-30.06-.33-44.74-1.64,14.67-1.31,30-1.56,44.74-1.64,5.6.03,11.28.08,16.98.21-1.54-2.33-3.13-4.52-4.83-6.55h-69.82c23.33,31.13,60.52,51.29,102.42,51.29s79.09-20.15,102.42-51.29h-69.82ZM137.12,180.3h-2.32l-2.42,9.13h2.11l.36-1.52h2.19l.35,1.52h2.15l-2.42-9.13ZM135.22,186.26c.3-1.32.53-2.61.69-3.88h.03c.15,1.23.39,2.52.7,3.88h-1.42ZM142.46,185.97c0,1.34.23,2.3.68,2.86s1.23.85,2.33.85c.75,0,1.33-.12,1.75-.34.42-.23.73-.59.95-1.08s.32-1.15.32-1.96v-5.99h-2.11v6.35c0,.33-.08.58-.24.77-.16.19-.38.28-.66.28s-.48-.09-.64-.26c-.16-.17-.24-.41-.24-.71v-6.43h-2.13v5.67ZM151.73,182.38h1.42v7.04h2.1v-7.04h1.43v-2.08h-4.94v2.08ZM165.33,188.38c.58-.84.86-2.03.86-3.56s-.29-2.71-.88-3.53-1.43-1.24-2.54-1.24c-1.04,0-1.85.41-2.43,1.23s-.87,1.97-.87,3.44c0,1.6.29,2.82.87,3.66.58.85,1.42,1.27,2.52,1.27s1.89-.42,2.46-1.27ZM163.98,184.79c0,1.1-.1,1.84-.31,2.22-.21.38-.5.57-.89.57-.36,0-.63-.19-.82-.57-.19-.38-.28-1.13-.28-2.26,0-1.75.37-2.63,1.12-2.63.79,0,1.19.89,1.19,2.67ZM181.96,189.43l-1.22-1.7.91-.87-1.19-1.5-.84.81-.81-1.09c.56-.48.95-.93,1.19-1.35.24-.42.36-.86.36-1.32,0-.65-.25-1.2-.75-1.67-.5-.46-1.1-.7-1.8-.7-.75,0-1.36.22-1.83.67s-.7,1.04-.7,1.76c0,.36.07.72.21,1.07s.42.8.85,1.33c-.55.42-.95.81-1.21,1.16s-.39.78-.39,1.28c0,.67.25,1.22.73,1.67s1.09.68,1.81.68c.67,0,1.34-.25,1.99-.75l.35.49h2.34ZM177.33,187.81c-.18,0-.33-.05-.44-.15s-.17-.24-.17-.4c0-.3.22-.61.66-.94l.82,1.13c-.34.24-.63.36-.87.36ZM177.18,182.58c0-.18.06-.34.19-.47.13-.13.28-.19.45-.19.2,0,.36.05.48.16.13.11.19.24.19.4,0,.34-.25.72-.74,1.15-.38-.43-.57-.78-.57-1.05ZM190.47,189.43h2.71c.9,0,1.63-.24,2.18-.72.55-.48.83-1.12.83-1.91,0-.98-.44-1.65-1.33-2,.78-.49,1.18-1.13,1.18-1.93,0-.74-.27-1.35-.81-1.84s-1.42-.72-2.65-.72h-2.11v9.13ZM193.6,182.28c.22.15.33.4.33.77,0,.62-.46.94-1.39.96v-1.97c.48,0,.83.09,1.06.23ZM192.71,185.67c.93,0,1.4.33,1.4.98,0,.35-.13.6-.39.75-.26.15-.66.23-1.18.24v-1.98h.17ZM205.11,188.38c.58-.84.86-2.03.86-3.56s-.29-2.71-.88-3.53c-.59-.82-1.43-1.24-2.54-1.24-1.04,0-1.85.41-2.43,1.23-.58.82-.87,1.97-.87,3.44,0,1.6.29,2.82.87,3.66.58.85,1.42,1.27,2.52,1.27s1.89-.42,2.46-1.27ZM203.76,184.79c0,1.1-.1,1.84-.31,2.22-.21.38-.5.57-.89.57-.36,0-.63-.19-.82-.57-.19-.38-.28-1.13-.28-2.26,0-1.75.37-2.63,1.12-2.63.79,0,1.19.89,1.19,2.67ZM213.26,180.3h-2.32l-2.42,9.13h2.11l.36-1.52h2.19l.35,1.52h2.15l-2.42-9.13ZM211.37,186.26c.3-1.32.53-2.61.69-3.88h.03c.16,1.23.39,2.52.7,3.88h-1.42ZM217.7,182.38h1.42v7.04h2.1v-7.04h1.43v-2.08h-4.94v2.08ZM146.25,242.33c-.94,1.44-1.79,3.34-1.79,5.88,0,2.36.7,4.33,1.79,6.04h-1.52c-.9-1.32-1.75-3.38-1.75-6.05s.91-4.6,1.75-5.87h1.52ZM146.82,249.68c0-1.32.67-1.98,1.12-2.22-.54-.36-.9-.93-.9-1.93,0-1.5.89-2.5,2.51-2.5,1.46,0,2.43.82,2.43,2.38,0,1.18-.44,1.78-.92,2.04.58.27,1.12.89,1.12,2.26,0,1.65-.92,2.76-2.75,2.76-1.68,0-2.62-1.04-2.62-2.79ZM150.52,249.64c0-1.07-.35-1.5-1.03-1.5s-1.01.49-1.01,1.5c0,.94.3,1.52,1.03,1.52s1.01-.54,1.01-1.52ZM148.62,245.52c0,.9.27,1.3.89,1.3s.88-.43.88-1.27c0-.78-.25-1.24-.89-1.24s-.88.49-.88,1.21ZM158.71,247.65c0,3.55-.79,4.81-2.7,4.81s-2.69-1.34-2.69-4.82c0-3.73,1.13-4.63,2.73-4.63,1.69,0,2.66,1.03,2.66,4.64ZM155,247.59c0,2.3.11,3.49,1.02,3.49s1.01-1.14,1.01-3.47-.13-3.2-1.01-3.2c-.82,0-1.03.9-1.03,3.18ZM159.9,245.61c0-1.21.54-2.6,2.51-2.6,1.65,0,2.4.93,2.4,2.37,0,1.13-.5,1.69-1.11,1.92v.03c.76.25,1.39.86,1.39,2.21,0,1.59-.62,2.93-2.74,2.93-1.74,0-2.54-1.02-2.58-2.53h1.61c.04.63.27,1.21,1.01,1.21.78,0,1.01-.58,1.01-1.57,0-1.04-.33-1.47-1.41-1.47h-.42v-1.37h.38c.86,0,1.19-.26,1.19-1.24,0-.68-.15-1.14-.84-1.14-.72,0-.85.71-.87,1.26h-1.53ZM165.66,254.26c.94-1.44,1.79-3.34,1.79-5.88,0-2.36-.7-4.33-1.79-6.04h1.52c.9,1.32,1.75,3.38,1.75,6.05s-.91,4.6-1.75,5.87h-1.52ZM173.41,252.34v-2.19h-3.25v-1.37l2.65-5.65h2.14v5.66h.84l-.15,1.36h-.7v2.19h-1.54ZM173.41,246.9c0-.98.02-1.73.05-2.5-.31.99-1.21,3.09-1.76,4.38h1.71v-1.89ZM177.66,252.34v-7.3c-.22.03-.74.03-1.01.02v-1.27c.66-.08,1.28-.39,1.57-.7h1.11v9.25h-1.67ZM180.69,252.34v-.09c.01-1.57.68-2.67,2.08-4.24,1.06-1.21,1.31-1.55,1.31-2.48,0-.69-.15-1.17-.83-1.17s-.89.58-.93,1.5h-1.61c.01-1.45.63-2.84,2.59-2.84,1.78,0,2.49,1.04,2.49,2.57,0,1.09-.27,1.69-1.46,2.94-.86.92-1.51,1.73-1.71,2.38h3.41l-.22,1.43h-5.12ZM189.88,247.95v1.45h-3.08v-1.45h3.08ZM195.3,243.13v1.31c-1.19,2.06-2.13,5-2.5,7.9h-1.76c.42-3.04,1.58-6.05,2.59-7.77h-3.23v-1.44h4.9ZM201.14,244.56h-2.85c-.05.6-.17,1.62-.21,2.03.25-.26.68-.44,1.32-.44,1.52,0,2.26,1.19,2.26,2.86,0,1.9-.61,3.45-2.8,3.45-1.74,0-2.53-1.06-2.58-2.57h1.65c.04.61.23,1.23.98,1.23.87,0,1.03-.81,1.03-1.89s-.2-1.74-1.03-1.74c-.63,0-.84.43-.99.94l-1.52-.21c.18-1.12.44-3.87.52-5.11h4.41l-.18,1.43ZM206.03,252.34v-2.19h-3.25v-1.37l2.65-5.65h2.14v5.66h.84l-.15,1.36h-.7v2.19h-1.54ZM206.03,246.9c0-.98.02-1.73.05-2.5-.31.99-1.21,3.09-1.76,4.38h1.71v-1.89ZM212.63,252.34v-2.19h-3.25v-1.37l2.65-5.65h2.14v5.66h.84l-.15,1.36h-.7v2.19h-1.54ZM212.63,246.9c0-.98.02-1.73.05-2.5-.31.99-1.21,3.09-1.76,4.38h1.71v-1.89Z"/>
</svg>